<?xml version="1.0" encoding="UTF-8"?>
<svg width="17px" height="17px" viewBox="0 0 17 17" version="1.1" xmlns="http://www.w3.org/2000/svg" xmlns:xlink="http://www.w3.org/1999/xlink">
    <!-- Generator: Sketch 58 (84663) - https://sketch.com -->
    <title>Path</title>
    <desc>Created with Sketch.</desc>
    <g id="Page-1" stroke="none" stroke-width="1" fill="none" fill-rule="evenodd" stroke-linejoin="round">
        <path d="M12.1151778,8.50014246 L15.5510242,11.935677 C16.5496586,12.9336667 16.5496586,14.5532758 15.5509466,15.5513431 C15.0645849,16.0370355 14.4163667,16.3 13.7431817,16.3 C13.069389,16.3 12.4213203,16.0372884 11.9352615,15.5511879 L8.5,12.115631 L5.06473846,15.5511879 C4.57925408,16.036714 3.92985839,16.3 3.25681833,16.3 C2.58343919,16.3 1.93480617,16.0371377 1.44897583,15.5512655 C0.45034139,14.5532758 0.45034139,12.9336667 1.4488982,11.9357546 L4.88419621,8.5001612 L1.4488982,5.06456784 C0.450367267,4.06595106 0.450367267,2.44710644 1.44897583,1.44841205 C2.44750323,0.450529316 4.06613343,0.450529316 5.06473846,1.44848966 L8.5,4.88404655 L11.9353392,1.44841205 C12.9338666,0.450529316 14.551852,0.450529316 15.550457,1.44848966 C16.548988,2.44710644 16.548988,4.06595106 15.550457,5.06456784 L12.1151778,8.50014246 Z" id="Path" stroke="#2C3845" stroke-width="0.6" fill="#FFFFFF" fill-rule="nonzero"></path>
    </g>
</svg>