<?xml version="1.0" encoding="UTF-8"?>
<svg width="100px" height="100px" viewBox="0 0 100 100" version="1.1" xmlns="http://www.w3.org/2000/svg" xmlns:xlink="http://www.w3.org/1999/xlink">
    <!-- Generator: Sketch 58 (84663) - https://sketch.com -->
    <title>Group 10</title>
    <desc>Created with Sketch.</desc>
    <g id="Page-1" stroke="none" stroke-width="1" fill="none" fill-rule="evenodd">
        <g id="Group-10">
            <rect id="Rectangle" stroke="#778487" stroke-width="0.25" x="0.125" y="0.125" width="9.75" height="9.75"></rect>
            <rect id="Rectangle" stroke="#778487" stroke-width="0.25" x="10.125" y="0.125" width="9.75" height="9.75"></rect>
            <rect id="Rectangle" stroke="#778487" stroke-width="0.25" x="20.125" y="0.125" width="9.75" height="9.75"></rect>
            <rect id="Rectangle" stroke="#778487" stroke-width="0.25" x="30.125" y="0.125" width="9.75" height="9.75"></rect>
            <rect id="Rectangle" stroke="#778487" stroke-width="0.25" x="40.125" y="0.125" width="9.75" height="9.75"></rect>
            <rect id="Rectangle" stroke="#778487" stroke-width="0.25" x="50.125" y="0.125" width="9.75" height="9.75"></rect>
            <rect id="Rectangle" stroke="#778487" stroke-width="0.25" x="60.125" y="0.125" width="9.75" height="9.75"></rect>
            <rect id="Rectangle" stroke="#778487" stroke-width="0.25" x="70.125" y="0.125" width="9.75" height="9.75"></rect>
            <rect id="Rectangle" stroke="#778487" stroke-width="0.25" x="80.125" y="0.125" width="9.75" height="9.75"></rect>
            <rect id="Rectangle" stroke="#778487" stroke-width="0.25" x="90.125" y="0.125" width="9.75" height="9.75"></rect>
            <rect id="Rectangle" stroke="#778487" stroke-width="0.25" x="0.125" y="10.125" width="9.75" height="9.75"></rect>
            <rect id="Rectangle" stroke="#778487" stroke-width="0.25" x="10.125" y="10.125" width="9.75" height="9.75"></rect>
            <rect id="Rectangle" stroke="#778487" stroke-width="0.25" x="20.125" y="10.125" width="9.75" height="9.75"></rect>
            <rect id="Rectangle" stroke="#778487" stroke-width="0.25" x="30.125" y="10.125" width="9.75" height="9.75"></rect>
            <rect id="Rectangle" stroke="#778487" stroke-width="0.25" x="40.125" y="10.125" width="9.75" height="9.75"></rect>
            <rect id="Rectangle" stroke="#778487" stroke-width="0.25" x="50.125" y="10.125" width="9.75" height="9.75"></rect>
            <rect id="Rectangle" stroke="#778487" stroke-width="0.25" x="60.125" y="10.125" width="9.75" height="9.75"></rect>
            <rect id="Rectangle" stroke="#778487" stroke-width="0.25" x="70.125" y="10.125" width="9.75" height="9.75"></rect>
            <rect id="Rectangle" stroke="#778487" stroke-width="0.25" x="80.125" y="10.125" width="9.75" height="9.75"></rect>
            <rect id="Rectangle" stroke="#778487" stroke-width="0.25" x="90.125" y="10.125" width="9.75" height="9.75"></rect>
            <rect id="Rectangle" stroke="#778487" stroke-width="0.25" x="0.125" y="20.125" width="9.75" height="9.75"></rect>
            <rect id="Rectangle" stroke="#778487" stroke-width="0.25" x="10.125" y="20.125" width="9.75" height="9.75"></rect>
            <rect id="Rectangle" stroke="#778487" stroke-width="0.25" x="20.125" y="20.125" width="9.75" height="9.75"></rect>
            <rect id="Rectangle" stroke="#778487" stroke-width="0.25" x="30.125" y="20.125" width="9.75" height="9.75"></rect>
            <rect id="Rectangle" stroke="#778487" stroke-width="0.25" x="40.125" y="20.125" width="9.75" height="9.75"></rect>
            <rect id="Rectangle" stroke="#778487" stroke-width="0.25" x="50.125" y="20.125" width="9.75" height="9.75"></rect>
            <rect id="Rectangle" stroke="#778487" stroke-width="0.25" x="60.125" y="20.125" width="9.75" height="9.75"></rect>
            <rect id="Rectangle" stroke="#778487" stroke-width="0.25" x="70.125" y="20.125" width="9.75" height="9.75"></rect>
            <rect id="Rectangle" stroke="#778487" stroke-width="0.25" x="80.125" y="20.125" width="9.75" height="9.75"></rect>
            <rect id="Rectangle" stroke="#778487" stroke-width="0.25" x="90.125" y="20.125" width="9.75" height="9.75"></rect>
            <rect id="Rectangle" stroke="#778487" stroke-width="0.25" x="0.125" y="30.125" width="9.75" height="9.75"></rect>
            <rect id="Rectangle" stroke="#778487" stroke-width="0.25" x="10.125" y="30.125" width="9.75" height="9.75"></rect>
            <rect id="Rectangle" stroke="#778487" stroke-width="0.25" x="20.125" y="30.125" width="9.75" height="9.75"></rect>
            <rect id="Rectangle" stroke="#778487" stroke-width="0.25" x="30.125" y="30.125" width="9.75" height="9.75"></rect>
            <rect id="Rectangle" stroke="#778487" stroke-width="0.25" x="40.125" y="30.125" width="9.75" height="9.75"></rect>
            <rect id="Rectangle" stroke="#778487" stroke-width="0.25" x="50.125" y="30.125" width="9.75" height="9.75"></rect>
            <rect id="Rectangle" stroke="#778487" stroke-width="0.25" x="60.125" y="30.125" width="9.75" height="9.75"></rect>
            <rect id="Rectangle" stroke="#778487" stroke-width="0.25" x="70.125" y="30.125" width="9.75" height="9.75"></rect>
            <rect id="Rectangle" stroke="#778487" stroke-width="0.25" x="80.125" y="30.125" width="9.75" height="9.75"></rect>
            <rect id="Rectangle" stroke="#778487" stroke-width="0.25" x="90.125" y="30.125" width="9.75" height="9.75"></rect>
            <rect id="Rectangle" stroke="#778487" stroke-width="0.25" x="0.125" y="40.125" width="9.75" height="9.75"></rect>
            <rect id="Rectangle" stroke="#778487" stroke-width="0.25" x="10.125" y="40.125" width="9.75" height="9.75"></rect>
            <rect id="Rectangle" stroke="#778487" stroke-width="0.25" x="20.125" y="40.125" width="9.75" height="9.75"></rect>
            <rect id="Rectangle" stroke="#778487" stroke-width="0.25" x="30.125" y="40.125" width="9.75" height="9.75"></rect>
            <rect id="Rectangle" stroke="#778487" stroke-width="0.25" x="40.125" y="40.125" width="9.75" height="9.75"></rect>
            <rect id="Rectangle" stroke="#778487" stroke-width="0.25" x="50.125" y="40.125" width="9.75" height="9.75"></rect>
            <rect id="Rectangle" stroke="#778487" stroke-width="0.25" x="60.125" y="40.125" width="9.75" height="9.75"></rect>
            <rect id="Rectangle" stroke="#778487" stroke-width="0.25" x="70.125" y="40.125" width="9.75" height="9.75"></rect>
            <rect id="Rectangle" stroke="#778487" stroke-width="0.25" x="80.125" y="40.125" width="9.75" height="9.75"></rect>
            <rect id="Rectangle" stroke="#778487" stroke-width="0.25" x="90.125" y="40.125" width="9.75" height="9.75"></rect>
            <rect id="Rectangle" stroke="#778487" stroke-width="0.25" x="0.125" y="50.125" width="9.75" height="9.75"></rect>
            <rect id="Rectangle" stroke="#778487" stroke-width="0.25" x="10.125" y="50.125" width="9.75" height="9.75"></rect>
            <rect id="Rectangle" stroke="#778487" stroke-width="0.25" x="20.125" y="50.125" width="9.75" height="9.75"></rect>
            <rect id="Rectangle" stroke="#778487" stroke-width="0.25" x="30.125" y="50.125" width="9.75" height="9.75"></rect>
            <rect id="Rectangle" stroke="#778487" stroke-width="0.25" x="40.125" y="50.125" width="9.75" height="9.75"></rect>
            <rect id="Rectangle" stroke="#778487" stroke-width="0.25" x="50.125" y="50.125" width="9.75" height="9.75"></rect>
            <rect id="Rectangle" stroke="#778487" stroke-width="0.25" x="60.125" y="50.125" width="9.75" height="9.75"></rect>
            <rect id="Rectangle" stroke="#778487" stroke-width="0.25" x="70.125" y="50.125" width="9.75" height="9.75"></rect>
            <rect id="Rectangle" stroke="#778487" stroke-width="0.25" x="80.125" y="50.125" width="9.75" height="9.75"></rect>
            <rect id="Rectangle" stroke="#778487" stroke-width="0.25" x="90.125" y="50.125" width="9.75" height="9.75"></rect>
            <rect id="Rectangle" stroke="#778487" stroke-width="0.25" x="0.125" y="60.125" width="9.75" height="9.75"></rect>
            <rect id="Rectangle" stroke="#778487" stroke-width="0.25" x="10.125" y="60.125" width="9.75" height="9.75"></rect>
            <rect id="Rectangle" stroke="#778487" stroke-width="0.25" x="20.125" y="60.125" width="9.75" height="9.75"></rect>
            <rect id="Rectangle" stroke="#778487" stroke-width="0.25" x="30.125" y="60.125" width="9.75" height="9.75"></rect>
            <rect id="Rectangle" stroke="#778487" stroke-width="0.25" x="40.125" y="60.125" width="9.75" height="9.75"></rect>
            <rect id="Rectangle" stroke="#778487" stroke-width="0.25" x="50.125" y="60.125" width="9.75" height="9.75"></rect>
            <rect id="Rectangle" stroke="#778487" stroke-width="0.25" x="60.125" y="60.125" width="9.75" height="9.75"></rect>
            <rect id="Rectangle" stroke="#778487" stroke-width="0.25" x="70.125" y="60.125" width="9.75" height="9.75"></rect>
            <rect id="Rectangle" stroke="#778487" stroke-width="0.25" x="80.125" y="60.125" width="9.75" height="9.75"></rect>
            <rect id="Rectangle" stroke="#778487" stroke-width="0.25" x="90.125" y="60.125" width="9.75" height="9.75"></rect>
            <rect id="Rectangle" stroke="#778487" stroke-width="0.25" x="0.125" y="70.125" width="9.75" height="9.75"></rect>
            <rect id="Rectangle" stroke="#778487" stroke-width="0.25" x="10.125" y="70.125" width="9.75" height="9.75"></rect>
            <rect id="Rectangle" stroke="#778487" stroke-width="0.25" x="20.125" y="70.125" width="9.75" height="9.75"></rect>
            <rect id="Rectangle" stroke="#778487" stroke-width="0.25" x="30.125" y="70.125" width="9.75" height="9.75"></rect>
            <rect id="Rectangle" stroke="#778487" stroke-width="0.25" x="40.125" y="70.125" width="9.75" height="9.75"></rect>
            <rect id="Rectangle" stroke="#778487" stroke-width="0.25" x="50.125" y="70.125" width="9.75" height="9.75"></rect>
            <rect id="Rectangle" stroke="#778487" stroke-width="0.25" x="60.125" y="70.125" width="9.75" height="9.75"></rect>
            <rect id="Rectangle" stroke="#778487" stroke-width="0.25" x="70.125" y="70.125" width="9.75" height="9.75"></rect>
            <rect id="Rectangle" stroke="#778487" stroke-width="0.25" x="80.125" y="70.125" width="9.75" height="9.75"></rect>
            <rect id="Rectangle" stroke="#778487" stroke-width="0.25" x="90.125" y="70.125" width="9.75" height="9.75"></rect>
            <rect id="Rectangle" stroke="#778487" stroke-width="0.25" x="0.125" y="80.125" width="9.75" height="9.75"></rect>
            <rect id="Rectangle" stroke="#778487" stroke-width="0.25" x="10.125" y="80.125" width="9.75" height="9.75"></rect>
            <rect id="Rectangle" stroke="#778487" stroke-width="0.25" x="20.125" y="80.125" width="9.75" height="9.75"></rect>
            <rect id="Rectangle" stroke="#778487" stroke-width="0.25" x="30.125" y="80.125" width="9.75" height="9.75"></rect>
            <rect id="Rectangle" stroke="#778487" stroke-width="0.25" x="40.125" y="80.125" width="9.75" height="9.75"></rect>
            <rect id="Rectangle" stroke="#778487" stroke-width="0.25" x="50.125" y="80.125" width="9.75" height="9.75"></rect>
            <rect id="Rectangle" stroke="#778487" stroke-width="0.25" x="60.125" y="80.125" width="9.75" height="9.75"></rect>
            <rect id="Rectangle" stroke="#778487" stroke-width="0.25" x="70.125" y="80.125" width="9.75" height="9.75"></rect>
            <rect id="Rectangle" stroke="#778487" stroke-width="0.25" x="80.125" y="80.125" width="9.75" height="9.75"></rect>
            <rect id="Rectangle" stroke="#778487" stroke-width="0.25" x="90.125" y="80.125" width="9.75" height="9.75"></rect>
            <rect id="Rectangle" stroke="#778487" stroke-width="0.25" x="0.125" y="90.125" width="9.75" height="9.75"></rect>
            <rect id="Rectangle" stroke="#778487" stroke-width="0.25" x="10.125" y="90.125" width="9.75" height="9.75"></rect>
            <rect id="Rectangle" stroke="#778487" stroke-width="0.25" x="20.125" y="90.125" width="9.75" height="9.75"></rect>
            <rect id="Rectangle" stroke="#778487" stroke-width="0.25" x="30.125" y="90.125" width="9.75" height="9.75"></rect>
            <rect id="Rectangle" stroke="#778487" stroke-width="0.25" x="40.125" y="90.125" width="9.75" height="9.75"></rect>
            <rect id="Rectangle" stroke="#778487" stroke-width="0.25" x="50.125" y="90.125" width="9.75" height="9.75"></rect>
            <rect id="Rectangle" stroke="#778487" stroke-width="0.25" x="60.125" y="90.125" width="9.75" height="9.75"></rect>
            <rect id="Rectangle" stroke="#778487" stroke-width="0.25" x="70.125" y="90.125" width="9.75" height="9.75"></rect>
            <rect id="Rectangle" stroke="#778487" stroke-width="0.25" x="80.125" y="90.125" width="9.75" height="9.75"></rect>
            <rect id="Rectangle" stroke="#778487" stroke-width="0.25" x="90.125" y="90.125" width="9.75" height="9.75"></rect>
            <g id="Group-9" stroke="#000000" stroke-opacity="0.2" stroke-width="0.5">
                <rect id="Rectangle" x="0.25" y="0.25" width="99.5" height="99.5"></rect>
            </g>
        </g>
    </g>
</svg>