<?xml version="1.0" encoding="UTF-8"?>
<svg width="91px" height="101px" viewBox="0 0 91 101" version="1.1" xmlns="http://www.w3.org/2000/svg" xmlns:xlink="http://www.w3.org/1999/xlink">
    <!-- Generator: Sketch 58 (84663) - https://sketch.com -->
    <title>Group</title>
    <desc>Created with Sketch.</desc>
    <g id="Page-1" stroke="none" stroke-width="1" fill="none" fill-rule="evenodd" stroke-linecap="square">
        <g id="Group" transform="translate(0.000000, -0.500000)" fill="#D8D8D8">
            <path d="M10.5,1 L10.5,100" id="Line" stroke="#748692"></path>
            <path d="M20.5,1 L20.5,100" id="Line" stroke="#748692"></path>
            <path d="M30.5,1 L30.5,100" id="Line" stroke="#748692"></path>
            <path d="M40.5,1 L40.5,100" id="Line" stroke="#748692"></path>
            <path d="M50.5,1 L50.5,100" id="Line" stroke="#748692"></path>
            <path d="M60.5,1 L60.5,100" id="Line" stroke="#748692"></path>
            <path d="M70.5,1 L70.5,100" id="Line" stroke="#748692"></path>
            <path d="M80.5,1 L80.5,100" id="Line" stroke="#748692"></path>
            <path d="M0.5,11 L89.5,11" id="Line" stroke="#748692"></path>
            <path d="M0.5,21 L89.5,21" id="Line" stroke="#748692"></path>
            <path d="M0.5,31 L89.5,31" id="Line" stroke="#748692"></path>
            <path d="M0.5,41 L89.5,41" id="Line" stroke="#748692"></path>
            <path d="M0.5,51 L89.5,51" id="Line" stroke="#748692"></path>
            <path d="M0.5,61 L89.5,61" id="Line" stroke="#748692"></path>
            <path d="M0.5,71 L89.5,71" id="Line" stroke="#748692"></path>
            <path d="M0.5,81 L89.5,81" id="Line" stroke="#748692"></path>
            <path d="M0.5,91 L89.5,91" id="Line" stroke="#748692"></path>
            <path d="M0.5,1 L0.5,101" id="Line" stroke="#475159"></path>
            <path d="M0.5,1 L90.5,1" id="Line" stroke="#475159"></path>
        </g>
    </g>
</svg>