<?xml version="1.0" encoding="UTF-8"?>
<svg width="18px" height="18px" viewBox="0 0 18 18" version="1.1" xmlns="http://www.w3.org/2000/svg" xmlns:xlink="http://www.w3.org/1999/xlink">
    <!-- Generator: Sketch 58 (84663) - https://sketch.com -->
    <title>Group 7</title>
    <desc>Created with Sketch.</desc>
    <defs>
        <linearGradient x1="50%" y1="0%" x2="50%" y2="100%" id="linearGradient-1">
            <stop stop-color="#A6282E" offset="0%"></stop>
            <stop stop-color="#EE5D62" offset="100%"></stop>
        </linearGradient>
    </defs>
    <g id="Page-1" stroke="none" stroke-width="1" fill="none" fill-rule="evenodd">
        <g id="Group-7" transform="translate(-1.000000, -3.204245)">
            <g id="Group-4" transform="translate(2.633481, 4.244312)" fill="#000000" fill-rule="nonzero" stroke="#2C3845">
                <path d="M7.65467701,-0.499922781 C12.0877888,-0.519016433 15.7003793,3.00576023 15.8191708,7.45261254 L15.8194934,7.75330244 L15.3590942,12.3806338 L14.8798623,12.3525825 L10.6870154,12.1071592 L9.77105894,12.0539724 L9.82533118,11.53332 L10.2251537,7.72153128 C10.2313987,6.29499696 9.06656853,5.13610849 7.63867976,5.14218229 C6.28124462,5.1479564 5.18389393,6.2170457 5.10186743,7.58419452 L5.09402149,7.70240494 L5.46088358,11.5391893 L6.01047103,15.4794827 L0.402354952,15.9809958 L0.340316388,15.5048045 L-0.120916955,11.9615778 L-0.499995267,7.76783014 C-0.480153089,3.2078215 3.14091688,-0.480481772 7.65467701,-0.499922781 Z M10.3516213,11.0859994 L10.7452169,11.1088544 L15.4946598,11.3868573 L14.7225003,15.9736862 L9.17887052,15.5484142 L9.90069466,11.0598155 L10.3516213,11.0859994 Z" id="Combined-Shape"></path>
            </g>
            <g id="Group-4" transform="translate(0.000000, 0.966724)">
                <path d="M9.38867491,8.6882483 L12.9340348,7.10611486 L10.8731494,3 L7.07302216,4.71726228 C3.36320087,6.83788413 2.0923215,11.534512 4.23395909,15.2073137 C6.37559668,18.8801155 11.0815126,20.0737535 14.7913339,17.9533569 L18.1936147,15.553694 L15.6325209,11.733827 L12.4759086,13.9828213 C10.9918891,14.8309799 9.12094178,14.3731184 8.26428674,12.9038175 C7.4076317,11.4345167 7.9046554,9.53640696 9.38867491,8.6882483 Z" id="Path" fill="url(#linearGradient-1)" fill-rule="nonzero" transform="translate(10.693615, 11.000000) rotate(-240.000000) translate(-10.693615, -11.000000) "></path>
                <polygon id="Path-2" fill="#D8D8D8" points="3 15.2183435 3.45909774 18.7422547 8.06566643 18.3303062 7.58864869 14.9103048"></polygon>
                <polygon id="Path-2" fill="#D8D8D8" transform="translate(14.956902, 16.814729) scale(-1, 1) translate(-14.956902, -16.814729) " points="12.3817543 15.1554816 12.9855617 18.7422547 17.5320505 18.393477 16.9681968 14.8872033"></polygon>
            </g>
        </g>
    </g>
</svg>